arm26_states
version=1
nRows=2
nColumns=17
inDegrees=yes

# SIMM Motion File Header:
name arm26_states
datacolumns 17
datarows 2
otherdata 1
range 0.488859 0.489000
endheader
time	/jointset/r_shoulder/r_shoulder_elev/value	/jointset/r_shoulder/r_shoulder_elev/speed	/jointset/r_elbow/r_elbow_flex/value	/jointset/r_elbow/r_elbow_flex/speed	/forceset/TRIlong/activation	/forceset/TRIlong/fiber_length	/forceset/TRIlat/activation	/forceset/TRIlat/fiber_length	/forceset/TRImed/activation	/forceset/TRImed/fiber_length	/forceset/BIClong/activation	/forceset/BIClong/fiber_length	/forceset/BICshort/activation	/forceset/BICshort/fiber_length	/forceset/BRA/activation	/forceset/BRA/fiber_length
      0.48885926000000001768	     -0.29135763319095059343	     -0.90806763147355384902	    126.74864398635469342480	    260.02135498584675588063	      0.02726044999999999857	      0.18148280999999999441	      0.27426757000000001607	      0.11524674999999999503	      0.27239245000000000818	      0.11030363999999999447	      0.99930262000000003031	      0.06520003000000000604	      0.94535071000000003849	      0.06412998000000000309	      0.02033509999999999832	      0.05369270999999999766
      0.48899999999999999023	     -0.29148532499849405530	     -0.90652415800022156933	    126.78523963553239184421	    260.02480543881830499231	      0.02725640330389875535	      0.18149469259921641173	      0.27411742039475123223	      0.11525944617867819875	      0.27226258442754269762	      0.11031625280310124182	      0.99930751277772666974	      0.06517331596160660934	      0.94575018306336955387	      0.06410229988958696112	      0.02033447509514447332	      0.05367814261620685451
